<?xml version="1.0" encoding="UTF-8"?>
<svg version="1.1" viewBox="0 0 1280 1272" width="1280" height="1272" xmlns="http://www.w3.org/2000/svg">
<path transform="translate(0)" d="m0 0h1280v1272h-1280z" fill="#7A8E8C"/>
<path transform="translate(592,303)" d="m0 0 8 1 16 4 1 19 48 1 2 7 2-3 2-4 143-1 15-4 3 2v2h62l1 1v48l-2 120-1 112v43l1-3v-15l11-3h2l6 10v2l4 1h9l3-3h2v-4h2l1-5 1-2 9 1 4 2 1 11 1 5 3 1v2h11l9-6 5 2 6 7-5 10-1 8h2l2 5 19 1 3 9-1 4-11 8-1 2v8l4 5 10 5 1 3-2 11-16 1-5 5v8l6 10-1 4-7 7-4-1v-2l-6-2h-10l-4 5-1 16-7 3h-4l-1 2-6-11-4-3h-9l-5 5-5 9-10-1-3-3-1-12-2-4-3-2h-5l-1 37h-171l-2-58-9-11-11-12-7-8-2-3h-2l-9 21-7 16v4l11 5 7 3v2l5 1-2 16-2 6-1 4-23 1-10 2-2 4-3 3-2 4v11l3 9h2v3h2v3h2l2 6h2l1 4-5 6-1 20-3 10-6 9-8 6-10 3h-12l-10-4-7-6-1-2-1 7h-3v3l-15 3-6 1-1-2-52-1v3h-2l-1 3-15-2-8-3-79-1-1-1v-17l7-1v-50h-7v-19h-20l-3-5-4-13-1-6 4-3h2v-2h3v-2l5-1v-2l4-2 5-22 1-7h-2l-5-5-15-7-5-3 1-10 3-13 6-2 23-1v-2l5-1 2-12 3-16h-2l-2-6h-2v-3h-2v-3h-2v-3h-2l1-5 6-8 7-6 1-2h5l5-22 7-31 9-43 8-35-22 1-6-19v-4l4-2 3-3 11-6 5-7v-15l-1-4-4-2-1-2-4-1v-2l-8-2v-2l-8-2 1-12 3-11 1-1 20-1 7-1-3-6-13-17-12-16-14-18v-2h-2l-6-9-5-5-1-3 3-1 108 1v-13l1-2 12-4 9-2 3 3 4 7v2h2v3h2l1 3 2 1v2h23l4-2 8-16z" fill="#133C38"/>
<path transform="translate(587,222)" d="m0 0h114l5 1 28 1 5 1 20 1 4 5 5 4 1 2 11 1 8 3 19 1 4 5 5 4 1 2 12 3 3 3 2 11h11l16 2 3 3 2 11h10l4 2 3 8-2 2-2 5 7 2 1 1 1-5 12 1 10 4 4 10v2l11 2 3 3 2 11 12 2 9 2 2 4 7 4 2 2 6 2 3 4 5 2 5 5 2 4 7 1 1 1v5l-7 2 1 2 5 1-1 2h-3l-1 2-5-2-2-5-1-4-1-5-4-5-5-3-4-3v-2l-5 1-15 10-7 3h-10l-6-3-4-5-4-4-1-6-1-23-11-2-13-2-4 7-50-1v-2l-4-1-14 4h-143l-2 7h-3l-1-1v-6h-48l-1-1v-19l-20-4-4-1-1 6-8 16-5 3h-21l-2-1v-2l-3-1v-3h-2v-3h-2l-6-10-2-1-14 4-6 1-1 15h-111l7 8 5 7v2h2l21 28 14 18 7 10v3l-7 2-20 1-3 11-2 12 6 1 2 1v2l6 1 2 1v2l5 1 5 6 1 2v15l-6 8-11 6h-2l-1 3-4 1 6 20v3l5-1h17l-2 13-11 50-6 28-8 36-2 5-5-1-2 4-3 1-1 3-4 4-4 5-1 4h2v3h2v3h2v3h2l2 3v3h2l-1 11-4 17-5 1v2l-4 1-19 1-5 1-4 18v5l16 8 7 4 1 3h2v7l-5 22-2 2h-3v2l-5 1v2h-3v2l-5 3 3 13 4 10h28v1h-8v19h7v50l-7 1 1 17 79 1 8 3 15 2 1-2h2v-3h52l1 3 9-3 12-1v-3h3v-8l5 5 8 5 6 2h12l10-3 8-6 6-10 2-8 1-20 5-6v-4h-2l-2-6h-2v-3h-2v-3h-2l-4-9v-11l4-7 6-5 8-2h23l1-9 1-1 2-12 1-4-5-1v-2l-7-2-12-6 1-6 12-28 4-8 3 1 7 8 12 14 9 10 1 2 1 22v36h171v-37l1-1h5l5 5 1 2 1 14 12 1 6-11 4-3h9l5 4 6 9 10-3 1-16 2-3h2l1-3h10l6 3v2l5-1 6-6-1-5-5-8v-8l4-5 2-1h16l1-13-11-6-4-5v-8l4-5 9-6-2-12h-16l-3-1-2-5h-2v-8l5-11-8-7-4 2-7 4h-9l-5-4-2-5-1-11-12-3-2 7h-2v4h-2l-1 3-2 1h-9l-4-2-6-10v-2l-10 3h-3l1 6v9l-2 4h-1v-42l3 1 1 5h2l4 8v2l16-5 8-3v-26l2-7 2-3h3v-2h2v-2l4-2h14l19 10h5l1-3 5-5 6-7 1-3-6-8-7-11-1-3v-11l3-7h2v-2h2l1-3 9-3 10-1h14l1-7 3-18-6-2-17-9-4-4-2-5v-14l4-7 6-5 15-9-1-9-5-14-2-1-13 1h-13l-8-4-6-8-1-4v-8l4-11 4-1 1 5h-2v2h2l-1 5v8l3 3 5-2 1-3 6 1 4 5v2l-10 1 1 3h9l7 2 6-1v-2h5l2 5h2v3l2 1 1 6v8l2 1-2 1 1 8h5l2 3-2 4v7l2 7 5 4 6 6v6l-5 4-4-2h-5l-1 8h1l1 7h5 4l6-2 2 5 1 26 10 3 2 5 1 5 1 20 1 5v138l-1 5-1 20-2 9-9 3h-3v34l-3 8-1 11-4 4-2 5-6 2-2 12-7 5-9-3 2 7 1 2-3 7h-6l-1-1-2 7-1 1 5 1-2 7-4 3h-3v11l-5 5-5 1-1-5-6 4-2 7 4 8-5 14-9 3h-3v10l-2 4-8 3-2-2-6-1 2 7 1 2-3 7-8 3-2-2-6-1 2 6v4l-5 6-11 2-2 11-3 3-13 3-2-2-7-2-6 3-3 5 5 1-3 8-8 3-2-2-6-1 2 6v4l-5 6-8 2-13 1-1-5-2 2-6 1 4 6-2 4-3 5-12 2-2 6-7 3-2 3-15 2-12 2h-10l-3 10-1 2-19 1-5 1-20 1-5 1h-138l-5-1-20-1-5-1-19-1-2-6-3-1 2-2-1-4-5 1-2 1-11-1-8-3-18-1-3-11-18-4-11-1-3-11-12-3-6-7 3-9-7 2-2 1-9-3 1-2 1-12 1-1-7-1h-4-6v-6-4l-2-5-11-1-2-2-1 5-13-3-3-3-2-11-11-2-3-3-2-11-11-2-3-3-2-11-11-2-3-3-2-8-1-13 5-1-2-2-1-6-1 1-12 1h-3l-2-9 2-2 1-12v-4l-2-5-7-2-6 4-4-2-11-3-2-16-2-9-1-13 5-1-2-2-1-6-6 4-4-2-5-4v-11l2-3 5-2 2-6-1-1-1-7-8 3-7-2-3-7-3-2-1-19-3-8v-26l-6-2-1-2-1-19-4-4v-25l2-3 4 4 4-1-3-3-4-5v-3l4-1 2 3v3h2l1 5h19l5 3 2 4v10l-5 10 1 4 7 6 5 1v-2l8-5 3-1h7l5 3 4 6 1 15 14 4 2-6 6-10 3-2h11l2 1v2h2v2h2l2 3v3h2l1 4 12-3 2-1 1-18 3-5 3-2h12l10 5 4-1 6-8 1-3-3-1-6-10v-8l4-6 6-3 14-1 2-7h2l-2-7-13-7-3-6v-8l1-3 5-4h2l1-3 5-3v-11h-2v-3h-19l-6-5-1-2v-11l5-9-1-4-4-5-5-2-3 1-3 3-5 3h-12l-5-4-2-4-1-15-8-3-6-1v3h-2l-3 9-5 5-9 2-6-3-1-3h-2v-3h-2l-4-7-14 3v20l-2 3h-3v2l-5 2-8-1-2-1v-2l-6-1v-2l-5 2-3 1v2h-2l-1 4h-2l9 15v8l-4 6-3 2-5 1h-13l-2 13-1 2h2l-1 3h-3l-3-9 3-6 2-5 2-6 1-2h4l1-2 2 5h6v-5l4-2 4-3-2-5-4-1-2-2v-10l6-5 4-4-4-2-12-1v-6l4-4 2-5 4-2 5 1 6 2 1-7v-4l-2-5-1-2v-14l-3-3v-12l11-3 4-18 1-11 11-3 5-14 5-4 4 2 4-1-1-5-1-2 4-10 2 2 11 1 1 1 1-7v-4l-2-5-1-2 3-12 3-3 11-2 2-11 3-3 13-3 7 5 1-7 3-3 4-2 3-5-5-1 3-13 3-3 11-2 2-11 3-3 13-3 2 2 7 2 1-1 7-1-4-8 3-7 7-3 3 2 6 1-2-6v-4l5-6 12-3 3-11 16-2 9-2 13-1 2 2 6 1-2-6v-4l3-4 11-4h18l2-6 7-3 2-3 17-2 28-1z" fill="#93A0A0"/>
<path transform="translate(691,357)" d="m0 0h173l1 1v34l-2 184-2 170-1 28-2 1h-107l-4-1-2-39-8-10-10-11v-2h-2l-5-6v-2h-2l-9-11-3-3v-2h-2l-7-8-9-10v-2h-2l-7-8-12-14-9-10v-2h94v-34l3-101v-27l-1-6-4 8-14 35-8 19-8 20-5 12-6 16-4 8-6 16-7 16-1 2h-76l3 5 2 4h2l2 5h2l4 5v2l3 1v2h2l11 14 10 11 9 11 1 3-11 26-15 36-7 15-5 13-4 4h-110l-1-3 5-11 5-12 6-15 6-13 12-28 5-13 5-10 11-26 10-24 5-10 5-13 12-29 7-15 13-31 13-30 8-20 6-13 8-19 4-9 9-21 6-15 7-15 9-22z" fill="#217268"/>
<path transform="translate(587,222)" d="m0 0h114l5 1 28 1 5 1 20 1 4 5 5 4 1 2 11 1 8 3 19 1 4 5 5 4 1 2 12 3 3 3 2 11h11l16 2 3 3 2 11h10l4 2 3 8-2 2-2 5 7 2 1 1 1-5 12 1 10 4 4 10v2l11 2 3 3 2 11 12 2 9 2 2 4 7 4 2 2 6 2 3 4 5 2 5 5 2 4 7 1 1 1v5l-7 2 1 2 5 1-1 2h-3l-1 2-5-2-2-5-1-4-1-5-4-5-5-3-4-3v-2l-5 1-15 10-7 3h-10l-6-3-4-5-4-4-1-6-1-23-11-2-13-2-4 7-50-1v-2l-4-1-14 4h-143l-2 7h-3l-1-1v-6h-48l-1-1v-19l-20-4-4-1-1 6-8 16-5 3h-21l-2-1v-2l-3-1v-3h-2v-3h-2l-6-10-2-1-14 4-6 1-1 15h-111l7 8 5 7v2h2l21 28 14 18 7 10v3l-7 2-20 1-3 11-2 12 6 1 2 1v2l6 1 2 1v2l5 1 5 6 1 2v15l-6 8-11 6h-2l-1 3-4 1 6 20v3l5-1h17l-2 13-11 50-6 28-8 36-2 5-5-1-2 4-3 1-1 3-4 4-4 5-1 4h2v3h2v3h2v3h2l2 3v3h2l-1 11-2 7-3 8h-2v2l-5 1-3-1-9-9v-15l-2 1v-2h-2v-3l-3 2 1-4 5-7 1-3-3-1-6-10v-8l4-6 6-3 14-1 2-7h2l-2-7-13-7-3-6v-8l1-3 5-4h2l1-3 5-3v-11h-2v-3h-19l-6-5-1-2v-11l5-9-1-4-4-5-5-2-3 1-3 3-5 3h-12l-5-4-2-4-1-15-8-3-6-1v3h-2l-3 9-5 5-9 2-6-3-1-3h-2v-3h-2l-4-7-14 3v20l-2 3h-3v2l-5 2-8-1-2-1v-2l-6-1v-2l-5 2-3 1v2h-2l-1 4h-2l9 15v8l-4 6-3 2-5 1h-13l-2 13-1 2h2l-1 3h-3l-3-9 3-6 2-5 2-6 1-2h4l1-2 2 5h6v-5l4-2 4-3-2-5-4-1-2-2v-10l6-5 4-4-4-2-12-1v-6l4-4 2-5 4-2 5 1 6 2 1-7v-4l-2-5-1-2v-14l-3-3v-12l11-3 4-18 1-11 11-3 5-14 5-4 4 2 4-1-1-5-1-2 4-10 2 2 11 1 1 1 1-7v-4l-2-5-1-2 3-12 3-3 11-2 2-11 3-3 13-3 7 5 1-7 3-3 4-2 3-5-5-1 3-13 3-3 11-2 2-11 3-3 13-3 2 2 7 2 1-1 7-1-4-8 3-7 7-3 3 2 6 1-2-6v-4l5-6 12-3 3-11 16-2 9-2 13-1 2 2 6 1-2-6v-4l3-4 11-4h18l2-6 7-3 2-3 17-2 28-1z" fill="#93A0A0"/>
<path transform="translate(468,357)" d="m0 0h161l-1 9-12 55-16 74-5 13-9 22-5 11-8 19-11 26-3 4h-7l4 5-1 7-9 21-5 12-12 28-4 9-16 38-7 17-5 11-5 12-7 17-5 8h-46l-1-2 6-27 10-47 7-32 7-31 4-20 4-16 4-20 3-12 4-21 7-32 8-36 5-23 5-24 3-13v-5l-7-9-2-5h-2l-14-19-10-13-7-9z" fill="#27817E"/>
<path transform="translate(886,320)" d="m0 0 17 3 7 2 1 3 1 20 2 9 3 1v2l3 1v2l6 2h10l12-6 12-8 3 1v2l4 2 8 6 3 4-1 6-8 16-1 4v8l3 7 5 5 6 3h13l14-1 2 2 5 14 1 9-19 12-5 6-1 3v14l3 6 5 4 20 10-1 12-3 13-24 2-9 3-1 2h-2v2h-2l-2 7v11l4 8 9 13 1 2-3 5-4 4-4 5-5 4-4-1-18-9h-14l-4 1v2h-2v2h-3l-3 10v26l-12 5-10 3h-3l-4-8v-2h-2l-2-5-2-1 1-114 2-120v-48l-11-1 2-6z" fill="#504F50"/>
<path transform="translate(678,805)" d="m0 0h35l10 27 9 27 5 14h5l-1-6v-15l2-10 6-10 8-6 11-4h8l13 3 7 3v-4h28l2 1 9-3 10 1 8 4 1 17 4-8 6-7 9-5 4-1h16l8 4 5 5 3 8-1 11-3 6-8 7-11 4-9 2 3 3h11l8-4 4-1 6 14v4l-10 6-7 2h-15l-10-3-7-5-6-10-2-8v-17l-6 1h-13v-9l-5 3-1 28h9l1 1v18h-40v-6l-10 5-7 2h-15l-12-5-7-8-1 12h-39v-18l1-1h5v-2l-21 1 4 1v18l-1 1h-33l-2-1v-17l8-1 3-10 10-30 4-11h-6z" fill="#143D39"/>
<path transform="translate(317,538)" d="m0 0h17l16 4 8 4v2l4 1 6 4v2l4 2 6 8 5 8 1 6h2l3 15v14l-3 14-8 16-3 1-1 4-7 7-3 2h-3l-1 3-8 4-12 4-7 1h-14l-10-2-13-5-5-3v-2l-4-1-1-3-4-1-4-6-5-5-7-14-3-15v-13l4-16 6-12h2l1-4 5-6h2v-2l5-2v-2l14-8z" fill="#93A0A0"/>
<path transform="translate(0,1120)" d="m0 0h6l5 7 5 3 2 5 5 2 1 1 1 11 2 2 11 1 2 2 2 5 5 2 3 6 5 2 3 6 5 2 1 1 1 12 6 3 3 6 5 3 3 5 12 1 2 2 1 12 1 1 12 1 2 2 1 11 7 5 3 5 5 3 3 5 11 1 2 2 2 5 11 1 3 3v5h-160z" fill="#627C7C"/>
<path transform="translate(894,376)" d="m0 0 10 2 10 5 11 6 1 3 4 1 3 3 8 7 7 8v3h2l9 15 3 6 3 9 3 12 1 8v22l-3 16-3 9-7 15-7 11-12 12-5 6-3 1-4 4h-3v2l-15 8-15 5v-79z" fill="#92A0A0"/>
<path transform="translate(0)" d="m0 0h152v6l-2 2-12 1-3 6-1 1-11 1-5 7-5 3-1 11-2 2-5 2-2 5-6 3-2 5-1 1-12 1-4 6-5 3-2 5-6 3-1 12-2 2-5 2-2 5-6 3-2 5-6 3-2 5-6 3-2 5-6 3-2 5-6 3-2 5-6 4-3 5h-6z" fill="#627C7C"/>
<path transform="translate(338,507)" d="m0 0h6l9 4 1 15 4 6 2 1h12l5-3h2l1-3 4-1 6 4 4 5-1 6-4 6v13l3 1 3 3 19 1v3h2l1 11-6 4-5 5-3 1v11l3 6 13 7 1 1v6h-2l-1 7-1 1-14 1-6 3-3 5v8l6 10 2 1-1 5-7 8-5-1-8-4h-12l-4 4-1 2-1 18-9 4h-6l-1-4h-2l-2-6h-2v-2h-2v-2h-13l-5 5-6 12-11-2-4-2-1-15-4-6-4-2h-7l-6 3-5 2v2h-5l-9-8 1-5 4-8v-10l-1-4-5-2-19-1-4-13 4-4 4-2 1-2 4-2 1-3h2v-11h-2l-2-4-14-7 2-12 1-3 18-2 5-5 1-2v-8l-8-13v-2h2l1-4h2v-2l4-3h4v2l6 1v2l10 1 5-1v-2h3l1-3 1-20 12-4 3 1 3 5v2h2v3h2l4 4 4 1 8-2 3-1 2-5 3-7h2zm-21 31-15 4-11 6-3 2v2l-5 2v2l-4 2-4 5v3h-2l-7 14-3 14v13l3 15 9 17 9 9h2l2 4h3v2l9 5 12 4 7 1h14l14-3 9-4 5-3v-2l4-1 8-7 2-2v-3l3-1 8-16 3-14v-14l-3-15h-2l-1-6-6-9-7-9h-2v-2l-7-5h-3v-2l-11-5-13-3z" fill="#504F50"/>
<path transform="translate(1274,1136)" d="m0 0h6v136h-136v-6l7-5 3-5 5-2 2-5 6-3 2-5 1-1 11-1 5-7 5-3 3-5 5-3 3-5 5-3 3-5 5-3 3-5 5-3 3-5 5-3 3-5 5-3 3-5 5-2 2-5 5-1 1-3 1-11 2-2 5-2 2-5 6-3 2-5z" fill="#627C7C"/>
<path transform="translate(1152)" d="m0 0h128v136h-6l-2-2-1-11-7-5-3-5-5-3-2-5-5-2-3-6-5-2-1-1-1-11-7-5-3-5-5-3-3-5-5-3-3-5-5-3-3-5-11-1-3-8-3-7-10-1-2-2-2-5-5-2-4-6-5-3-3-5-5-3z" fill="#627C7C"/>
<path transform="translate(916,655)" d="m0 0h16l12 3v2l6 1 2 1v2l5 1 1 3 4 2 2 4 4 2 6 10 4 14v19l-5 15-1 2h-2v3h-2l-1 4-11 11-6 3h-3v2l-8 3-6 1h-17l-12-3-11-6-3-2v-80l2-7 4-1v-2l8-2v-2z" fill="#92A0A0"/>
<path transform="translate(685,711)" d="m0 0 3 1 7 8 12 14 9 10 1 2 1 22v36h94l-4 2 3 3 3 9-7 1-3 4-2 1h-6v4l-5-1-9-3-6-1h-8l-13 5-4 4h-2l-2 4-4 9-1 7v15l1 6-1 1h-5l-4-10-8-24-4-10-8-22v-3h-35v18h6l-2 9-9 26-6 16-9 1h-3l-2 2 1-11 1-20 5-6v-4h-2l-2-6h-2v-3h-2v-3h-2l-4-9v-11l4-7 6-5 8-2h23l1-9 1-1 2-12 1-4-5-1v-2l-7-2-12-6 1-6 12-28z" fill="#A0ABAB"/>
<path transform="translate(439,500)" d="m0 0 1 2 6-1h17l-2 13-11 50-6 28-8 36-2 5-5-1-2 4-3 1-1 3-4 4-4 5-1 4h2v3h2v3h2v3h2l2 3v3h2l-1 11-2 7-3 8h-2v2l-5 1-3-1-9-9v-15l-2 1v-2h-2v-3l-3 2 1-4 5-7 1-3-3-1-6-10v-8l4-6 6-3 14-1 2-7h2l-2-7-13-7-3-6v-8l1-3 5-4h2l1-3 5-3-1-16h-7v-10l2-8 4-1 4 2 5-5 3-5h3l1-8-2-1 1-11 2-4 1-4 2-3 5-2z" fill="#A0ABAB"/>
<path transform="translate(934,629)" d="m0 0 9 1 4 2 1 11 1 5 3 1v2h11l9-6 5 2 6 7-5 10-1 8h2l2 5 19 1 3 9-1 4-11 8-1 2v8l4 5 10 5 1 3-2 11-16 1-5 5v8l6 10-1 4-7 7-4-1v-2l-6-2h-10l-4 5-1 16-7 3h-4l-1 2-6-11-4-3h-9l-5 5-5 9-10-1-3-3-1-12-2-4-3-2-5-1v-12l2-2 8 5 10 4 6 1h17l8-2 6-1v-2l10-5 10-10 1-3h2v-3h2l3-10 2-7v-19l-4-14-7-11-5-5-6-5-3-1v-2l-8-2v-2l-12-2h-16l-12 2v2l-8 2v2l-5 2v-14l2-4v-15l11-3h2l6 10v2l4 1h9l3-3h2v-4h2l1-5z" fill="#504F50"/>
<path transform="translate(453,804)" d="m0 0h169l-6 8-6 7h-2v2l-5 3-3 3h-2v2h-3v2h-3v2h-3v2l-5-1-3-4v-2l-10-4h-15l-7 2v-2h-28v18h7l1 5-3 1-10-2-3-12-3-4v-2l-10-4h-15l-7 2v-2h-8l-6-7-6-5-1-4-4-2z" fill="#A1ACAC"/>
<path transform="translate(683,809)" d="m0 0h26l3 5 14 40 8 23 6 1 1 2v8h-31v-9l7-1-2-9-2-1h-21l-4 1-3 9h6v10h-27v-9l6-3 10-28 9-28-6-1-1-5z" fill="#27807C"/>
<path transform="translate(616,827)" d="m0 0h17l10 5v2h2l5 10 1 4v16l-2 9-6 9-8 6-7 2h-12l-9-4-7-8-3-9v-21l3-8 6-8z" fill="#27807C"/>
<path transform="translate(464,400)" d="m0 0 4 5v3h2v3h2l8 11-5 26-3 13-1 1-4 22-4 17-22 1-6-19v-4l4-2 3-3 11-6 5-7v-15l-1-4-4-2-1-2-4-1v-2l-8-2v-2l-8-2 1-12 3-11 1-1 20-1 7-1z" fill="#504F50"/>
<path transform="translate(486,827)" d="m0 0h14l7 4 4 7 1 4 1 36 5 1v9h-27l-1-2v-6l6-2 1-9v-18l-1-11-3-1h-9l-5 3-2 4-1 33h7v9h-28l-1-2v-6l6-2 1-2v-36l-7-2v-9l1-1h18l1 1v5l9-6z" fill="#27807C"/>
<path transform="translate(558,827)" d="m0 0h13l6 4 4 5 2 6 1 36 6 1v9h-29v-8l7-2v-30l-1-8-3-1h-10l-5 5-1 2v32l6 2v7l-1 1h-28v-8l7-2v-39l-7-1v-10h20v6h2v-2l7-4z" fill="#27807C"/>
<path transform="translate(880,827)" d="m0 0h12l7 3 5 7 1 8-3 9-5 5-12 5-14 1 3 9 5 3 2 1h9l8-3 4 1 2 4-1 5-5 3-8 2h-12l-9-3-5-3v-2h-2v-2h-2l-4-12v-15l3-10 5-8 8-6z" fill="#27807C"/>
<path transform="translate(831,827)" d="m0 0h13l4 2v18l-10 1-1-1v-7h-8l-4 3-2 10v22l1 3 8 1 1 1v6l-1 2h-31v-9l6-2v-37l-7-2v-9l1-1h19l2 5z" fill="#277F7B"/>
<path transform="translate(766,827)" d="m0 0h15l9 3 2 2v14l-2 2h-9l-1-8-6-2-8 2-4 5-1 3v19l4 8 5 3h9l7-3 4 1 3 7-7 5-8 2h-12l-10-4-8-9-2-6-1-7v-12l2-9 7-10 9-5z" fill="#277F7C"/>
<path transform="translate(419,809)" d="m0 0h28l1 1v8l-7 3-1 57h6l1 1v9h-29v-9l6-2 1-16v-41h-5l-1-1z" fill="#27807C"/>
<path transform="translate(622,804)" d="m0 0h22l2 1 1 10 3 9h2v3h2v3h2l2 6h2l1 4-5 6-2-2-3-8-1-4h-2l-5-5-9-4h-18l-14 7-6 9-2 5-1 7v22l-4 1-1-1-1-28-2-9-1-2 5 1v-2h3v-2h3v-2h3v-2l4-1 2-4 4-1v-2l6-5 7-9z" fill="#504F50"/>
<path transform="translate(668,753)" d="m0 0 11 4 8 4v2l5 1-2 16-2 6-1 4-23 1-10 2-2 4-2-4 5-11 9-22z" fill="#515152"/>
<path transform="translate(770,842)" d="m0 0h6v10l20-1v-9h7l1 1v32h-7v3l-3-1-4-8-10 5h-11l-4-5-1-3v-17l4-6z" fill="#909F9F"/>
<path transform="translate(416,697)" d="m0 0h3l1 3-3 13-6 27h-3l-5-5-15-7-5-3 1-10 3-13 6-2 23-1z" fill="#504F50"/>
<path transform="translate(621,837)" d="m0 0 9 1 4 4 2 6v20l-3 7-4 4h-10l-5-4-3-9v-17l4-9z" fill="#133C38"/>
<path transform="translate(540,306)" d="m0 0 4 3 4 7v2h2v3h2l1 3 2 1v2l-35 1h-110l-1 2-1-3 3-1 108 1v-13l1-2 12-4z" fill="#4C5859"/>
<path transform="translate(592,303)" d="m0 0 8 1 16 4v19h-35l8-16z" fill="#504F50"/>
<path transform="translate(972,380)" d="m0 0 3 1 1 4h-2v2h2l-1 5v8l3 3 5-2 1-3 6 1 4 5v2l-10 1 1 3h9l7 2 6-1v-2h5l2 5h2v3l2 1 1 6v8l2 1h-3v7l-2-1-1-9-5-14-2-1-13 1h-13l-8-4-6-8-1-4v-8l4-11z" fill="#8D9C9B"/>
<path transform="translate(446,824)" d="m0 0 3 1v17l7 1 1 1 1 14v16l-1 1h-6l-7-2 1-47z" fill="#504F50"/>
<path transform="translate(618,845)" d="m0 0 12 4v2h2v16l-3 6-2 2h-7l-3-3-2-8v-12l2-6z" fill="#9EAAAA"/>
<path transform="translate(250,543)" d="m0 0 4 4 6 10v8l-4 6-3 2-5 1h-13l-2 13-1 2h2l-1 3h-3l-3-9 3-6 2-5 2-6 1-2h4l1-2 2 5h6v-5l4-2 4-3-2-5-4-1-2-2 1-4z" fill="#8C9B9B"/>
<path transform="translate(453,804)" d="m0 0 36 1-4 2v2h-8l1 3-1 3 1 2-1 2 8 1v2h14v1l-14 1-7 2v-2h-8l-6-7-6-5-1-4-4-2z" fill="#909E9E"/>
<path transform="translate(487,842)" d="m0 0 5 2 1 2v23l-1 6-12-1v-21l1-7 3-3z" fill="#504F50"/>
<path transform="translate(556,842)" d="m0 0h6l2 4v26l-1 2-6 1-6-1 1-29z" fill="#525353"/>
<path transform="translate(701,824)" d="m0 0 2 2 8 26v4h-20l2-9 7-21z" fill="#133C38"/>
<path transform="translate(429,632)" d="m0 0 5 1-2 11-5 22-1 2h-2l-2-6h-2v-3h-2v-3h-2v-3h-2l1-5 6-8 7-6z" fill="#505051"/>
<path transform="translate(400,771)" d="m0 0h3l-1 9-4 20-1 4 2 1h-5l-3-5-4-13-1-6 4-3h2v-2h3v-2l5-1z" fill="#504F50"/>
<path transform="translate(516,846)" d="m0 0 10 1 2 1v26h-10l-1-1z" fill="#4F4E4F"/>
<path transform="translate(237,592)" d="m0 0 5 1 6 4v3h2v11h-2l-1 4-4 1-1 3-9 4v1h-5l-1-6 2-3 4 2 5-4 3-1 1-9-2-1v-2l-2-1z" fill="#8D9B9B"/>
<path transform="translate(881,837)" d="m0 0h6l4 3v8l-6 5-3 1h-11l1-9 6-7z" fill="#133C38"/>
<path transform="translate(961,348)" d="m0 0 7 2 3 4 5 2 5 5 2 4 7 1 1 1v5l-7 2 1 2 5 1-1 2h-3l-1 2-5-2-2-5-1-4-1-5-4-5-5-3-4-3v-2h-5l1-3z" fill="#8E9D9C"/>
<path transform="translate(1101,488)" d="m0 0 5 1 2 2 1 35 1 3h-5l-3-4z" fill="#94A1A1"/>
<path transform="translate(891,610)" d="m0 0 3 1 1 5h2l4 8 1 6-6 3h-3l1 6v9l-2 4h-1z" fill="#99A5A5"/>
<path transform="translate(454,807)" d="m0 0 3 1 4 6 8 7 1 3h-18v-15z" fill="#505051"/>
<path transform="translate(480,856)" d="m0 0h3v2l4 1 5 9v7l-12-1z" fill="#8C9B9A"/>
<path transform="translate(393,635)" d="m0 0h1l1 9v-7l2-1-1 5 5-2 1 1v7 2l1 7h3v8l-2-2-2 3-1-5-2 4v-3l2-5-3-1-6-10v-8z" fill="#93A1A1"/>
<path transform="translate(456,859)" d="m0 0 2 1v14l-1 1h-6l-7-2 1-7z" fill="#869797"/>
<path transform="translate(1007,409)" d="m0 0h5l2 5h2v3l2 1 1 6v8l2 1h-3v7l-2-1-1-9-5-14-2-1h-8l3-1v-2l4-2z" fill="#899998"/>
<path transform="translate(1104,750)" d="m0 0 4 4v19l-3 3-4-1 1-20z" fill="#94A1A1"/>
<path transform="translate(735,850)" d="m0 0h4v2h2l1 15 1 6-1 1h-5l-4-10 2-4 3-2v6h2l-2-8-1-3-2 1z" fill="#8B9B9B"/>
<path transform="translate(1015,397)" d="m0 0 9 3 3 16-3 2-3-9-5-1-2-6v-4z" fill="#94A1A1"/>
<path transform="translate(631,860)" d="m0 0h1v7l-3 6-2 2h-7l-3-3 1-3 6 1v-6l3-2 1 3z" fill="#9BA7A7"/>
<path transform="translate(496,893)" d="m0 0h24v3h-2l-1 3-15-2-6-2z" fill="#504F50"/>
<path transform="translate(520,824)" d="m0 0h1v18h7l1 5-3 1-10-2v-6h2v-8h1z" fill="#829696"/>
<path transform="translate(1032,429)" d="m0 0 7 2 3 4 1 13h-6l1-14-8-1z" fill="#94A1A1"/>
<path transform="translate(509,825)" d="m0 0 9 2 1 7v8l-1-2h-3l-3-8-2-4-3-1z" fill="#94A3A2"/>
<path transform="translate(701,837)" d="m0 0 2 3 3 9v3h-10l3-11z" fill="#8C9F9F"/>
<path transform="translate(226,567)" d="m0 0 4 2v6l-5 6-3-1v-10z" fill="#94A1A1"/>
<path transform="translate(984,349)" d="m0 0 8 3 2 4 1 13h-2l-3-6v-9l-8-1z" fill="#94A1A1"/>
<path transform="translate(233,574)" d="m0 0h2l-2 13-1 2h2l-1 3h-3l-3-9 3-6z" fill="#8B9A9A"/>
<path transform="translate(891,610)" d="m0 0 3 1-1 2v21l1 5v9l-2 4h-1z" fill="#809392"/>
<path transform="translate(882,841)" d="m0 0 5 1-1 5-6 3h-4l1-5z" fill="#849595"/>
<path transform="translate(892,612)" d="m0 0 3 1v3h2l3 5v2l-5 2-1 2h-2z" fill="#8F9D9D"/>
<path transform="translate(924,359)" d="m0 0h8l3 2-2 3 3 2h-10l-2-2h2l-2-2z" fill="#768B89"/>
<path transform="translate(621,842)" d="m0 0h6l3 3 2 6h-2v-2l-5-1-6-2z" fill="#504F50"/>
<path transform="translate(416,571)" d="m0 0h2l1 8-4 6-2 1-1 2-5-1 1-2h2l1-3 5-3z" fill="#869797"/>
<path transform="translate(232,626)" d="m0 0 3 3v3h2l1 5-5-1-2-4-2-2v-3z" fill="#8F9D9D"/>
<path transform="translate(520,824)" d="m0 0h1v20l-4 1-1-5h2v-8h1z" fill="#859696"/>
<path transform="translate(229,615)" d="m0 0 4 2 1 5-1 2h-5l-1-6z" fill="#94A1A1"/>
<path transform="translate(617,869)" d="m0 0 7 1 4 1-1 4h-7l-3-3z" fill="#8A9B9B"/>
<path transform="translate(256,483)" d="m0 0 3 1v9l-3 2-1-1v-10z" fill="#94A1A1"/>
<path transform="translate(401,656)" d="m0 0h5v8l-2-2-2 3-1-5-2 4v-3z" fill="#94A2A2"/>
<path transform="translate(402,597)" d="m0 0 5 3 6 1-1 2h-3l-1 4-4-2-2-5z" fill="#909E9E"/>
<path transform="translate(990,410)" d="m0 0 5 1 8 2-3 2h-9l-1-2 3-1h-5z" fill="#94A1A1"/>
<path transform="translate(244,529)" d="m0 0h5l1 4-2 3-4-1-1-4z" fill="#94A1A1"/>
<path transform="translate(728,848)" d="m0 0h3l2 3 1 7-2 3-4-11z" fill="#8F9E9D"/>
<path transform="translate(488,817)" d="m0 0h6l2 2v3h-11l3-2z" fill="#9BA7A7"/>
<path transform="translate(615,852)" d="m0 0 3 1v10l-1 6h-1l-1-5z" fill="#7E9594"/>
<path transform="translate(556,842)" d="m0 0h6l1 3-3 1h-8z" fill="#8E9D9C"/>
<path transform="translate(777,820)" d="m0 0 7 1 7 3v2l-15-3z" fill="#8D9C9C"/>
<path transform="translate(393,635)" d="m0 0h1l1 10 3 5-1 3-5-8v-8z" fill="#7E9190"/>
<path transform="translate(291,548)" d="m0 0 2 1-5 3v-2zm-5 4 2 1-9 9-2-1 4-5h2v-2z" fill="#7A8E8D"/>
<path transform="translate(1007,841)" d="m0 0 2 1 2 7-3 2-3-6z" fill="#94A1A1"/>
<path transform="translate(894,624)" d="m0 0 1 3 3 1-2 1v4l-4 1v-7h2z" fill="#A1ACAC"/>
<path transform="translate(657,872)" d="m0 0 1 3-3 3-1 2-6 3 2-5 3-4h4z" fill="#8D9C9C"/>
<path transform="translate(670,858)" d="m0 0h2l-2 9-2 5-2-8 3-2z" fill="#829998"/>
<path transform="translate(631,860)" d="m0 0h1v7l-2 3-1-2-3-1v-5l2 2z" fill="#909E9E"/>
<path transform="translate(422,686)" d="m0 0 1 2-2 8-5 1v2h-3l1-3h4v-2h2l1-7z" fill="#7F9594"/>
<path transform="translate(397,630)" d="m0 0 5 1-1 7-3 1v-6l-4 2 2-4z" fill="#8A9999"/>
<path transform="translate(396,633)" d="m0 0h2v8h-2v5l-2-1v-10z" fill="#A1ADAD"/>
<path transform="translate(704,846)" d="m0 0 2 3v3h-10v-2l8-1z" fill="#839A99"/>
<path transform="translate(999,406)" d="m0 0 8 2-1 3h-7v-2l-2-1z" fill="#94A1A1"/>
<path transform="translate(993,398)" d="m0 0 7 1 1 3-2 2-6-4z" fill="#94A1A1"/>
</svg>
